<?xml version="1.0" encoding="UTF-8" standalone="no"?>
<!-- Created with Inkscape (http://www.inkscape.org/) -->

<svg
   xmlns:dc="http://purl.org/dc/elements/1.1/"
   xmlns:cc="http://creativecommons.org/ns#"
   xmlns:rdf="http://www.w3.org/1999/02/22-rdf-syntax-ns#"
   xmlns:svg="http://www.w3.org/2000/svg"
   xmlns="http://www.w3.org/2000/svg"
   xmlns:sodipodi="http://sodipodi.sourceforge.net/DTD/sodipodi-0.dtd"
   xmlns:inkscape="http://www.inkscape.org/namespaces/inkscape"
   width="293.55725mm"
   height="188.19797mm"
   viewBox="0 0 293.55725 188.19797"
   version="1.1"
   id="svg8"
   inkscape:version="0.92.3 (2405546, 2018-03-11)"
   sodipodi:docname="logo.svg">
  <defs
     id="defs2" />
  <sodipodi:namedview
     id="base"
     pagecolor="#ffffff"
     bordercolor="#666666"
     borderopacity="1.0"
     inkscape:pageopacity="0.0"
     inkscape:pageshadow="2"
     inkscape:zoom="0.98994949"
     inkscape:cx="676.03077"
     inkscape:cy="41.467539"
     inkscape:document-units="mm"
     inkscape:current-layer="layer1"
     showgrid="false"
     inkscape:window-width="3840"
     inkscape:window-height="2031"
     inkscape:window-x="0"
     inkscape:window-y="0"
     inkscape:window-maximized="1"
     fit-margin-top="0"
     fit-margin-left="0"
     fit-margin-right="0"
     fit-margin-bottom="0" />
  <metadata
     id="metadata5">
    <rdf:RDF>
      <cc:Work
         rdf:about="">
        <dc:format>image/svg+xml</dc:format>
        <dc:type
           rdf:resource="http://purl.org/dc/dcmitype/StillImage" />
        <dc:title />
      </cc:Work>
    </rdf:RDF>
  </metadata>
  <g
     inkscape:label="Layer 1"
     inkscape:groupmode="layer"
     id="layer1"
     transform="translate(-96.843581,129.29809)">
    <path
       inkscape:connector-curvature="0"
       id="path3726"
       d="m 176.99966,54.810952 c -2.0191,-1.98039 -8.0463,-7.91067 -13.3938,-13.17839 -5.34748,-5.26772 -9.91104,-9.62433 -10.14123,-9.68136 -0.23018,-0.0571 -0.83664,0.005 -1.34767,0.13861 -4.81434,1.25548 -8.27753,1.63077 -10.88268,1.17928 -2.59795,-0.45023 -4.272,-2.26361 -4.272,-4.62755 0,-1.17579 0.88111,-3.65489 1.62833,-4.58144 0.2551,-0.31633 0.38884,-0.70043 0.2972,-0.85356 -0.0917,-0.15313 -9.45574,-4.15541 -20.8091,-8.89396 -11.35338,-4.73854 -20.64382,-8.67765 -20.64544,-8.75357 -0.006,-0.24106 4.42052,-2.52184 6.35719,-3.27618 3.48119,-1.35595997 4.74381,-1.51163997 32.05591,-3.95245 14.03815,-1.25454 27.68019,-2.424492 30.31565,-2.599882 7.67926,-0.51105 6.70094,-0.24639 9.18091,-2.48368 3.34305,-3.01591 6.74704,-5.89672 17.1702,-14.53122 19.99863,-16.566757 33.39608,-27.892252 33.39608,-28.231271 0,-0.261128 -0.47998,-0.451252 -1.87179,-0.741436 -1.02947,-0.214643 -24.91079,-4.852743 -53.06958,-10.30689 -28.15879,-5.45415 -51.7147,-10.049248 -52.34644,-10.211329 -2.84945,-0.731081 -2.67877,-3.271719 0.44233,-6.584379 1.74035,-1.847175 3.18032,-2.980815 6.12253,-4.820055 3.02769,-1.89268 6.1029,-3.26805 8.53031,-3.81512 1.67364,-0.3772 1.78121,-0.37722 22.30459,-0.004 11.34255,0.20617 30.46089,0.55062 42.4852,0.76546 12.02431,0.21483 28.73555,0.51651 37.1361,0.6704 8.40054,0.15388 21.57628,0.38502 29.27942,0.51364 l 14.00571,0.23384 20.58476,-13.144829 c 12.90301,-8.239501 21.92589,-13.844871 24.17857,-15.020691 13.4578,-7.02452 28.29217,-12.35159 41.84782,-15.02767 3.62017,-0.71468 8.84786,-1.42462 10.65205,-1.4466 0.89228,-0.0109 0.99131,-0.0456 0.5089,-0.17854 -0.39256,-0.10817 0.38148,-0.16869 2.24615,-0.17561 1.94083,-0.007 2.7023,0.0486 2.39586,0.17561 -0.34388,0.1425 -0.23371,0.18684 0.46974,0.18909 1.58559,0.005 3.86665,0.54794 5.04238,1.20003 0.84386,0.46804 1.31214,0.96852 1.84472,1.97155 0.39259,0.73935 0.73782,1.25785 0.76719,1.15224 0.0294,-0.10563 0.14163,0.36967 0.24945,1.05621 0.21963,1.39833 0.0331,3.9813 -0.26509,3.67188 -0.10625,-0.11025 -0.36443,0.49753 -0.57377,1.35058 -1.60962,6.55953 -8.87878,16.69715 -17.88004,24.93557 -6.85364,6.27283 -9.40736,8.07754 -31.9566,22.583534 l -19.73182,12.693534 2.0286,45.494202 c 1.11573,25.021822 2.01277,45.952002 1.99342,46.511522 -0.0724,2.09486 -3.08956,5.21899 -7.93452,8.21595 -6.73443,4.16572 -13.83551,5.88016 -15.91719,3.84294 -0.23812,-0.23302 -7.73311,-15.88744 -16.65554,-34.7876 -8.92244,-18.900152 -16.4085,-34.485662 -16.63569,-34.634462 -0.35528,-0.2327 -0.49809,-0.2327 -1.02097,0 -0.88547,0.39407 -29.46522,14.41853 -44.15755,21.668682 -11.94688,5.89538 -19.95648,9.78242 -23.47538,11.39256 l -1.57231,0.71942 v 3.10305 c 0,2.92273 -0.20862,4.05818 -3.59028,19.54026 -1.97466,9.04047 -3.79483,16.95573 -4.04481,17.58945 -0.72558,1.83942 -2.91773,4.45262 -5.11482,6.09723 -1.09355,0.81857 -2.11243,1.488302 -2.26417,1.488302 -0.15174,0 -1.92788,-1.620332 -3.94699,-3.600732 z"
       style="fill:#000080;stroke-width:0.23981793" />
  </g>
</svg>
